<svg xmlns="http://www.w3.org/2000/svg" viewBox="0 0 237.29 52.6"><defs><style>.cls-1{fill:#f497bc;}.cls-2{fill:#fff458;}.cls-3{fill:#80c571;}.cls-4{fill:#3ac6ef;}.cls-5{fill:#231f20;}</style></defs><title>falcom-short</title><path class="cls-1" d="M52.1,57.48H33.28s-15.21-.37-19.16,13.73H25.46S25.86,68,33,67.08H52.23S54,67.21,54,65.64V59.1a1.52,1.52,0,0,0-1.89-1.62" transform="translate(-12.8 -57.04)"/><path class="cls-1" d="M97.81,58.16s-1.75-.41-1.75,1.7V71.21h11.06V59.63a1.71,1.71,0,0,0-1.59-1.46H97.81Z" transform="translate(-12.8 -57.04)"/><path class="cls-2" d="M14.12,71.21s-0.88,1.14-.88,12H54V80.06s0.36-1.75-2-1.75H24.21V75.49s0-3,1.25-4.28H14.12Z" transform="translate(-12.8 -57.04)"/><rect class="cls-2" x="83.26" y="14.17" width="11.05" height="11.97"/><path class="cls-2" d="M79,72H59s-2-.76-2,2v4.46s-0.51,1.74,2.14,1.74H75.39s3.76-.25,5.26,3H92.49S92.25,72.6,79,72" transform="translate(-12.8 -57.04)"/><path class="cls-2" d="M111.38,83.19S114,72.85,126.13,72.11h16.92s1.89-.15,1.89,1.51v5.17s0.36,1.78-1.77,1.78H131.69s-4.58-.25-6.84,2.63H111.38Z" transform="translate(-12.8 -57.04)"/><path class="cls-2" d="M147,83.19s3.53-12.33,19.2-12.23c0,0,13.37-1.07,18.5,12.23H173.11a8.17,8.17,0,0,0-7-4.14,9,9,0,0,0-7.48,4.14H147Z" transform="translate(-12.8 -57.04)"/><path class="cls-2" d="M189.26,74.22s-0.36-1.75,2-1.75h39.27s10.85-.64,12.62,10.72h-12s-0.9-1.45-3.65-1.58H224A1.51,1.51,0,0,0,222,83.19H210.72s0.3-1.45-1.72-1.58h-6.76s-1.48-.39-1.62,1.58H189.26v-9Z" transform="translate(-12.8 -57.04)"/><path class="cls-3" d="M13.24,83.19H54v2.88s0.37,1.77-1.88,1.77H24.21v7h-11V83.19Z" transform="translate(-12.8 -57.04)"/><path class="cls-3" d="M81.4,86.82H65.53s-9.33-.37-11.58,8H67.19l1.12-.26h13l0,0.25H92.63v-10a2.58,2.58,0,0,0-.15-1.63H80.65a7.12,7.12,0,0,1,.75,3.63" transform="translate(-12.8 -57.04)"/><rect class="cls-3" x="83.26" y="26.15" width="11.05" height="11.61"/><path class="cls-3" d="M124.85,83.19H111.39s-1.13,1.51-1.13,7.21l0.25,4.4h12.72s-0.86-.63-0.86-4.52c0,0-.39-4.47,2.48-7.1" transform="translate(-12.8 -57.04)"/><path class="cls-3" d="M147,83.19s-1.37,2.14-1.37,6.84a21.69,21.69,0,0,0,.62,4.78h11.35a25.18,25.18,0,0,1-.24-4.78s-0.52-4.83,1.24-6.84H147Z" transform="translate(-12.8 -57.04)"/><path class="cls-3" d="M173.11,83.19s1.65,1.26,1.25,6.57a26.64,26.64,0,0,1-.24,5.05h11.35a31.76,31.76,0,0,0,.63-4.9s-0.11-4.71-1.38-6.72H173.11Z" transform="translate(-12.8 -57.04)"/><rect class="cls-3" x="176.45" y="26.15" width="11.36" height="11.61"/><rect class="cls-3" x="197.91" y="26.15" width="11.33" height="11.61"/><path class="cls-3" d="M231.21,83.19a4.73,4.73,0,0,1,.76,2.27V94.8h11.34V84.94a14.32,14.32,0,0,1-.12-1.75h-12Z" transform="translate(-12.8 -57.04)"/><path class="cls-4" d="M232,94.8v12.85a1.38,1.38,0,0,0,1.55,1.5h8a1.45,1.45,0,0,0,1.76-1.65V94.8H232Z" transform="translate(-12.8 -57.04)"/><path class="cls-4" d="M210.71,94.8v12.85a1.42,1.42,0,0,0,1.62,1.5h7.91a1.47,1.47,0,0,0,1.8-1.65V94.8H210.71Z" transform="translate(-12.8 -57.04)"/><path class="cls-4" d="M189.26,94.8v12.85a1.39,1.39,0,0,0,1.51,1.5h7.95a1.53,1.53,0,0,0,1.89-1.65V94.8H189.26Z" transform="translate(-12.8 -57.04)"/><path class="cls-4" d="M146.28,94.8s2.75,14.35,19.81,14.35c16.88,0,19.38-14.35,19.38-14.35H174.12s-1.89,6.13-8,6.13c-6.34,0-8.47-6.13-8.47-6.13H146.28Z" transform="translate(-12.8 -57.04)"/><path class="cls-4" d="M110.51,94.8s1.24,12.7,15.36,14.35h17.31a1.51,1.51,0,0,0,1.76-1.65v-5.38s0.25-1.57-1.89-1.57H131.56s-6.57.13-8.32-5.74H110.51Z" transform="translate(-12.8 -57.04)"/><path class="cls-4" d="M96.06,94.8v12.59a1.58,1.58,0,0,0,1.62,1.76h7.45a1.69,1.69,0,0,0,2-1.76V94.8H96.06Z" transform="translate(-12.8 -57.04)"/><path class="cls-4" d="M92.64,94.8H81.31v6.69h-13s-3,.14-3-3.44a3.33,3.33,0,0,1,1.89-3.24H54s-0.5-.14-0.5,3.35c0,0-.49,11,12.86,11H90.6a1.63,1.63,0,0,0,2-1.65V94.8Z" transform="translate(-12.8 -57.04)"/><path class="cls-4" d="M13.24,94.8v12.46a1.64,1.64,0,0,0,1.82,1.89h7a1.71,1.71,0,0,0,2.15-1.89V94.8h-11Z" transform="translate(-12.8 -57.04)"/><path class="cls-5" d="M66.93,109.64c-2.44,0-7.32-.41-10.62-3.41A10.54,10.54,0,0,1,53,98a12,12,0,0,1,3.16-8.11c2.27-2.35,5.58-3.54,9.85-3.54H81A6.08,6.08,0,0,0,79.24,82a6,6,0,0,0-4.06-1.39H58.37a1.86,1.86,0,0,1-1.85-1.86V73.4a1.84,1.84,0,0,1,1.85-1.88h18c0.28,0,7.83-.74,12.71,3.68,2.63,2.38,4,5.78,4,10.12v22.39a1.87,1.87,0,0,1-1.86,1.87H68.43C68.36,109.59,67.8,109.64,66.93,109.64ZM66,87.26c-4,0-7.12,1.1-9.22,3.27A11.36,11.36,0,0,0,53.88,98a9.73,9.73,0,0,0,3,7.56c4.2,3.81,11.45,3.16,11.51,3.13H91.21a1,1,0,0,0,1-1V85.32c0-4.08-1.24-7.27-3.68-9.48-4.61-4.17-12-3.45-12.09-3.46H58.37a1,1,0,0,0-1,1v5.34a1,1,0,0,0,1,1H75.15a6.74,6.74,0,0,1,4.67,1.61,7.11,7.11,0,0,1,2,5.47v0.43H66ZM22.66,109.58H14.72a1.88,1.88,0,0,1-1.92-1.87V78.16c0-6.6,1.92-11.81,5.69-15.47,6-5.85,14.57-5.66,14.93-5.64H52.56a1.93,1.93,0,0,1,1.86,2v6.55a1.89,1.89,0,0,1-1.86,1.92H33.15a10,10,0,0,0-6.38,2.44,7.81,7.81,0,0,0-2.14,5.79v2.14H52.56a1.86,1.86,0,0,1,1.86,1.85V86.4a1.89,1.89,0,0,1-1.86,1.87H24.64v19.45A2,2,0,0,1,22.66,109.58ZM33.27,57.91c-1.11,0-8.81.19-14.18,5.4-3.6,3.49-5.42,8.48-5.42,14.84v29.55a1,1,0,0,0,1.05,1h7.93a1.11,1.11,0,0,0,1.12-1V87.4H52.56a1,1,0,0,0,1-1V79.72a1,1,0,0,0-1-1H23.77v-3a8.64,8.64,0,0,1,2.4-6.41,10.64,10.64,0,0,1,7-2.68H52.56a1,1,0,0,0,1-1.05V59a1.08,1.08,0,0,0-1-1.12H33.27Zm208.62,51.66h-8.47a1.86,1.86,0,0,1-1.9-1.86v-21a4.74,4.74,0,0,0-.78-3.45A4,4,0,0,0,227.56,82h-4a1.14,1.14,0,0,0-1.14,1.07v24.6a1.87,1.87,0,0,1-1.91,1.86h-8.32a1.94,1.94,0,0,1-2-1.86V83.12A1.08,1.08,0,0,0,209.22,82H202a1,1,0,0,0-1,1.07v24.6a1.89,1.89,0,0,1-2,1.86h-8.4a1.87,1.87,0,0,1-1.87-1.86V73.9A1.89,1.89,0,0,1,190.69,72h40A14,14,0,0,1,240,75.47c2.51,2.37,3.78,5.81,3.78,10.22v22A1.86,1.86,0,0,1,241.89,109.58Zm-18.28-28.4h4a4.79,4.79,0,0,1,3.85,1.51,5.49,5.49,0,0,1,1,4.08v20.95a1,1,0,0,0,1,1h8.47a1,1,0,0,0,1-1v-22c0-4.17-1.18-7.39-3.51-9.59-3.66-3.45-8.94-3.17-9-3.19H190.69a1,1,0,0,0-1,1v33.81a1,1,0,0,0,1,1h8.4a1,1,0,0,0,1.09-1V83.12A1.89,1.89,0,0,1,202,81.18h7.19a1.94,1.94,0,0,1,1.93,1.94v24.6a1.06,1.06,0,0,0,1.09,1h8.32a1,1,0,0,0,1-1V83.12A2,2,0,0,1,223.61,81.18Zm-56.51,28.4h-2.3a19.52,19.52,0,1,1,0-39h2.3A19.52,19.52,0,0,1,167.09,109.58Zm-2.3-38.18a18.66,18.66,0,1,0,0,37.31h2.3A18.65,18.65,0,0,0,185.66,90,18.4,18.4,0,0,0,167.09,71.4h-2.3Zm-21.27,38.18H125.87c-5.56-.18-16-4.42-16-19.18s10.67-18.69,16.3-18.72h17.39a1.85,1.85,0,0,1,1.85,1.84v5.61A1.86,1.86,0,0,1,143.52,81h-12a9.13,9.13,0,0,0-6.2,2.25c-1.68,1.6-2.53,4-2.53,7,0,9.58,8.05,9.82,8.4,9.83h12.32a1.89,1.89,0,0,1,1.85,1.93v5.68A1.86,1.86,0,0,1,143.52,109.58Zm-17.39-37c-0.63,0-15.44.32-15.44,17.85s15,18.31,15.19,18.31h17.64a1,1,0,0,0,1-1V102a1,1,0,0,0-1-1.06H131.19c-0.1,0-9.26-.25-9.26-10.7,0-3.32.95-5.9,2.81-7.67a9.93,9.93,0,0,1,6.82-2.48h12a1,1,0,0,0,1-1V73.51a1,1,0,0,0-1-1H126.13Zm-20.51,37H97.47a1.85,1.85,0,0,1-1.84-1.86v-48a1.92,1.92,0,0,1,1.84-1.94h8.16a2,2,0,0,1,1.92,1.94v48A1.9,1.9,0,0,1,105.63,109.58Zm-8.16-51a1,1,0,0,0-1,1.07v48a1,1,0,0,0,1,1h8.16a1,1,0,0,0,1.05-1v-48a1.1,1.1,0,0,0-1.05-1.07H97.47ZM68.18,101.91a3.33,3.33,0,0,1-2.2-.82,3.94,3.94,0,0,1-1.12-3,3.9,3.9,0,0,1,1.09-2.94,4,4,0,0,1,2.64-1H81.72v7.8H68.18ZM68.54,95a3,3,0,0,0-2,.75A3.09,3.09,0,0,0,65.73,98a3.14,3.14,0,0,0,.82,2.4,2.49,2.49,0,0,0,1.72.6H80.85V95H68.54Zm97.43,6.4a8.9,8.9,0,0,1-9-9V87.58a9,9,0,0,1,9-9,8.91,8.91,0,0,1,8.83,9v4.81A8.81,8.81,0,0,1,166,101.37Zm0-21.89a8.13,8.13,0,0,0-8.15,8.1v4.81a8,8,0,0,0,8.15,8.11,8,8,0,0,0,8-8.11V87.58A8,8,0,0,0,166,79.48Z" transform="translate(-12.8 -57.04)"/><path class="cls-5" d="M243.26,73.53a6.34,6.34,0,0,1-2.68-.57,7,7,0,0,1-2.18-1.56,7.44,7.44,0,0,1-2-5.13,7.39,7.39,0,0,1,2-5.1,7.08,7.08,0,0,1,2.18-1.55,6.5,6.5,0,0,1,5.34,0,7.08,7.08,0,0,1,2.18,1.55,7.22,7.22,0,0,1,1.47,2.29,7.72,7.72,0,0,1,0,5.64,7.32,7.32,0,0,1-1.47,2.3A7,7,0,0,1,245.92,73,6.31,6.31,0,0,1,243.26,73.53Zm0-1a5.46,5.46,0,0,0,4.13-1.83,6.31,6.31,0,0,0,1.19-2,7.27,7.27,0,0,0,0-5,6.2,6.2,0,0,0-1.19-2,5.56,5.56,0,0,0-1.82-1.33,5.45,5.45,0,0,0-2.31-.49,5.5,5.5,0,0,0-2.32.49,5.62,5.62,0,0,0-1.84,1.33,6.14,6.14,0,0,0-1.2,2,7.27,7.27,0,0,0,0,5,6.25,6.25,0,0,0,1.2,2A5.55,5.55,0,0,0,243.26,72.58Zm3.42-2.26h-1.12l-2.19-3.73h-1.72v3.73H240.7V62.23h3.35a3,3,0,0,1,2.12.57,2.07,2.07,0,0,1,.6,1.57,2.56,2.56,0,0,1-.18,1,1.7,1.7,0,0,1-.51.68,2.16,2.16,0,0,1-.77.38,4.1,4.1,0,0,1-1,.14Zm-3.6-4.51h0.87a3.23,3.23,0,0,0,.88-0.11,1.34,1.34,0,0,0,.67-0.42,1.38,1.38,0,0,0,.26-0.92,1.42,1.42,0,0,0-.17-0.75,1.14,1.14,0,0,0-.44-0.42,1.84,1.84,0,0,0-.61-0.19,5.13,5.13,0,0,0-.69,0h-2.19v2.87h1.43Z" transform="translate(-12.8 -57.04)"/></svg>