<svg xmlns="http://www.w3.org/2000/svg" width="500" height="500"><path d="M249.36 35.718L50 106.677l31.502 264.177 168.07 93.428 168.936-94.695L450 105.421 249.36 35.718z" fill="#b3b3b3"/><path d="M430.116 120.688L248.895 58.186V441.96l151.872-85.009 29.35-236.263z" fill="#af2b2d"/><path d="M72.371 121.817L99.366 358.08l149.527 83.881V58.178l-176.522 63.64z" fill="#df2e31"/><path d="M290.9 249.069l-41.675-88.024-36.688 88.024H290.9zm15.89 37.012H196.318l-24.714 62.521-45.972.86 123.264-277.34 127.56 277.34h-42.609l-27.057-63.381z" fill="#f2f2f2"/><path d="M248.895 72.122l.329 88.923 41.632 88.092h-41.868l-.093 36.887 57.892.057 27.059 63.392 43.987.825L248.895 72.122z" fill="#b3b3b3"/></svg>