<svg xmlns="http://www.w3.org/2000/svg" width="500" height="500"><g transform="translate(50 -602.362)"><rect ry="3.629" rx="5.295" y="652.362" height="400" width="400" fill="#fbde34"/><g style="line-height:125%"><path d="M188.844 975.573H150.03v24.399h45.844v18.984h-70.523V916.58h70.664v19.055H150.03v21.586h38.813v18.351zm70.031 16.172q0-5.414-3.867-8.438-3.797-3.023-13.43-6.257-9.633-3.235-15.75-6.258-19.898-9.774-19.898-26.86 0-8.507 4.922-14.976 4.992-6.54 14.062-10.125 9.07-3.656 20.39-3.656 11.04 0 19.759 3.937 8.789 3.938 13.64 11.25 4.852 7.242 4.852 16.594h-24.61q0-6.258-3.867-9.703-3.797-3.446-10.336-3.446-6.61 0-10.476 2.954-3.797 2.882-3.797 7.382 0 3.938 4.219 7.172 4.218 3.164 14.835 6.61 10.618 3.375 17.438 7.312 16.594 9.563 16.594 26.367 0 13.43-10.125 21.094-10.125 7.664-27.774 7.664-12.445 0-22.57-4.43-10.055-4.5-15.188-12.234-5.062-7.805-5.062-17.93h24.75q0 8.227 4.219 12.164 4.289 3.868 13.851 3.868 6.117 0 9.633-2.602 3.586-2.672 3.586-7.453zm93.235-76.641v18.633h-1.055q-13.29 0-21.868 6.399-8.507 6.328-10.476 17.648 8.016-7.875 20.25-7.875 13.289 0 21.164 9.703Q368 969.315 368 985.065q0 9.774-4.64 17.93-4.57 8.156-12.868 12.797-8.226 4.57-18.281 4.57-10.899 0-19.477-4.922-8.578-4.992-13.359-14.203-4.781-9.21-4.922-21.234v-9.492q0-15.82 6.75-28.407 6.82-12.656 19.406-19.828 12.586-7.172 27.914-7.172h3.586zm-21.376 52.946q-4.71 0-7.875 2.18-3.164 2.179-4.71 5.343v7.102q0 19.406 13.43 19.406 5.413 0 9-4.852 3.655-4.851 3.655-12.164 0-7.523-3.726-12.234-3.656-4.781-9.774-4.781z" style="-inkscape-font-specification:'Roboto Heavy'" font-weight="900" font-size="144" font-family="Roboto" letter-spacing="0" word-spacing="0"/></g></g></svg>