<svg xmlns="http://www.w3.org/2000/svg" width="500" height="500"><defs><clipPath id="a"><path d="M275.945 28.672l-29.961 9.918s3.821 151.64-50.867 162.258c-36.062 41.785 5.551 1784.892 136.559 5.972 0 0-44.84-22.515-53.328-60.75-8.485-38.261-2.403-117.398-2.403-117.398z"/></clipPath><linearGradient x2="1" gradientUnits="userSpaceOnUse" gradientTransform="matrix(344.394 -116.194 -104.815 -309.067 77.762 575.995)" id="b"><stop offset="0" stop-color="#929669"/><stop offset=".231" stop-color="#929669"/><stop offset="1" stop-color="#fdfcf1"/></linearGradient><clipPath id="c"><path d="M292.098 175.105S552.441 346.574 491.449 702.68c-58.738 258.718-197.418 343.77-212.32 376.24-16.406 22.98-32.93 63.71-32.93 63.71l11.074-720.864s-22.906-220.11 34.825-246.661z"/></clipPath><linearGradient x2="1" gradientUnits="userSpaceOnUse" gradientTransform="matrix(241.166 -936.211 -1007.33 -161.502 203.932 1135.85)" id="d"><stop offset="0" stop-color="#45aa3a"/><stop offset="1" stop-color="#3d9439"/></linearGradient><clipPath id="e"><path d="M230.742 165.523S-13.468 332.121.582 626.066C14.637 920.02 187.121 1064.55 220.715 1090.77c21.719 23.15 22.617 32.07 24.297 54.91 15.222-32.7 12.691-488.422 14.304-541.688 6.258-207.351-11.484-399.328-28.574-438.469z"/></clipPath><linearGradient x2="1" gradientUnits="userSpaceOnUse" gradientTransform="matrix(422.095 95.9042 131.897 -394.11 -25.083 595.855)" id="f"><stop offset="0" stop-color="#41a83b"/><stop offset="1" stop-color="#5ebc44"/></linearGradient></defs><g clip-path="url(#a)" transform="matrix(.09491 0 0 -.09491 50 304.369)"><path d="M275.945 28.672l-29.961 9.918s3.821 151.64-50.867 162.258c-36.062 41.785 5.551 1784.892 136.559 5.972 0 0-44.84-22.515-53.328-60.75-8.485-38.261-2.403-117.398-2.403-117.398" fill="url(#b)"/></g><g clip-path="url(#c)" transform="matrix(.09491 0 0 -.09491 50 304.369)"><path d="M292.098 175.105S552.441 346.574 491.449 702.68c-58.738 258.718-197.418 343.77-212.32 376.24-16.406 22.98-32.93 63.71-32.93 63.71l11.074-720.864s-22.906-220.11 34.825-246.661" fill="url(#d)"/></g><g clip-path="url(#e)" transform="matrix(.09491 0 0 -.09491 50 304.369)"><path d="M230.742 165.523S-13.468 332.121.582 626.066C14.637 920.02 187.121 1064.55 220.715 1090.77c21.719 23.15 22.617 32.07 24.297 54.91 15.222-32.7 12.691-488.422 14.304-541.688 6.258-207.351-11.484-399.328-28.574-438.469" fill="url(#f)"/></g><path d="M351.97 279.654c1.64 1.31 4.918 1.85 7.808 1.85 3.747 0 7.417-.695 11.007-3.932 3.668-3.316 6.167-8.404 6.167-16.5 0-7.787-2.966-14.11-9.055-17.81-3.436-2.158-7.884-3.006-12.96-3.006-1.483 0-2.966.077-3.825.462-.235.154-.703.771-.703 1.08-.156 1.388-.156 11.95-.156 18.195 0 6.399 0 15.342.156 16.423.08.924.546 2.543 1.562 3.238zm-15.582-42.868c1.327 0 6.37.231 8.713.231 4.372 0 7.416-.23 15.612-.23 6.87 0 12.649 1.85 16.786 5.396 4.997 4.318 7.651 10.331 7.651 17.656 0 10.408-4.762 16.422-9.523 19.815-4.764 3.545-10.931 5.55-19.752 5.55-4.685 0-12.727-.154-19.441-.23h-.092c-.311-.618.575-3.022 1.125-3.085 1.814-.205 2.306-.275 3.149-.622 1.417-.583 1.752-1.305 1.91-3.85.232-4.78.155-10.485.155-16.962 0-4.625.077-13.646-.079-16.499-.234-2.39-1.247-3.006-3.278-3.47-1.016-.23-2.42-.462-4.372-.693-.156-.462 1.046-2.545 1.436-3.007m69.436 3.778c-.312.078-.703.849-.703 1.234-.077 2.775-.155 10.022-.155 15.033 0 .155.233.386.39.386 1.015.078 3.512.155 5.62.155 2.967 0 4.686-.386 5.622-.849 2.498-1.233 3.668-3.931 3.668-6.861 0-6.708-4.684-9.252-11.63-9.252-.47 0-1.797 0-2.812.154zm17.721 30.84c0-6.785-4.995-10.64-14.13-10.64-.39 0-3.28-.077-3.982.078-.234.076-.467.23-.467.385 0 4.858-.08 12.644.155 15.727.157 1.311 1.095 3.162 2.265 3.702 1.25.694 4.058.848 6.01.848 5.388 0 10.15-3.007 10.15-10.1zm-31.82-34.618c.702 0 2.78.231 8.088.231 4.997 0 9.055-.153 13.896-.153 6.01 0 14.286 2.158 14.286 11.102 0 4.394-3.122 7.941-7.181 9.637-.235.077-.235.232 0 .309 5.777 1.464 10.851 5.01 10.851 11.795 0 6.63-4.137 10.795-10.149 13.416-3.67 1.619-8.196 2.158-12.804 2.158-3.513 0-12.926-.385-18.158-.307-.547-.232.501-2.7.968-3.085 1.25-.076 2.214-.166 3.541-.552 1.873-.463 2.095-1.067 2.33-3.842.157-2.39.157-10.948.157-17.04 0-8.326.077-13.954 0-16.73-.08-2.159-.86-2.853-2.343-3.238-1.17-.231-3.122-.463-4.683-.694-.392-.386.81-2.698 1.2-3.007" fill="#c0bdba"/><path d="M112.435 285.17c-.13-.207-.268-.82-.239-1.558.021-.56.133-.917.238-1.04 1.472-.232 2.17-.389 2.997-.61 1.38-.342 1.9-1.088 1.981-2.853.227-4.158.24-11.955.157-17.439l.001-.162c.007-.588.016-1.392-.723-1.96-1.083-.713-2.432-1.303-4.14-1.815-.654-.193-1.016-.537-.996-.94.02-.385.43-.877 1.282-1.04 2.26-.234 8.188-1.645 10.514-2.718.138.167.355.53.313 1.108-.017.243-.039.497-.06.76-.066.776-.14 1.654-.14 2.53 0 .258.279.502.576.502.15 0 .29-.059.403-.17 4.433-3.47 8.397-4.708 10.438-4.708 3.354 0 5.964 1.6 7.981 4.892.118.174.277.266.455.266a.513.513 0 0 0 .422-.227c4.076-3.088 8.116-4.931 10.816-4.931 6.391 0 10.209 4.779 10.209 12.78 0 2.3-.024 5.214-.044 7.935-.02 2.387-.036 4.625-.036 6.173 0 .376.502 1.417 1.26 1.625.934.455 2.285.687 3.99.98l.065.012c.13.458-.141 2.242-.401 2.607-.423-.003-1.01-.033-1.74-.07a98.972 98.972 0 0 0-5.262-.16c-4.246 0-6.465.084-8.585.22-.16-.529-.215-2.237-.02-2.593 1.235-.23 1.846-.387 2.589-.606 1.351-.446 1.74-1.058 1.819-2.85.031-1.277.276-12.499-.159-15.163-.4-2.762-2.484-5.994-7.041-5.994-1.69 0-4.422.702-7.026 2.675-.161.156-.254.461-.254.661l.004.051c.307 1.439.307 3.116.307 5.654 0 1.447-.01 2.982-.017 4.505-.018 3.094-.035 6.016.017 8.223 0 1.504.91 1.863 1.644 2.153.397.088.713.164 1.03.24.613.147 1.247.3 2.188.45.128.297.14 1.183-.037 1.94-.099.419-.212.603-.272.663-2.36-.08-4.784-.152-8.28-.152-1.06 0-2.79.046-4.317.087-1.237.033-2.409.065-3.075.068-.096-.153-.23-.641-.23-1.344 0-.654.12-1.115.243-1.257l.938-.169c.82-.146 1.529-.27 2.208-.438 1.157-.352 1.591-.995 1.676-2.464.226-3.432.402-13.315-.084-15.791-.827-3.972-3.091-5.985-6.727-5.985-2.133 0-4.823 1.024-7.024 2.672-.369.272-.648.956-.648 1.587 0 1.177-.003 2.579-.008 4.081-.015 4.965-.032 11.143.089 13.817.074.822.36 1.8 1.911 2.161.339.095.925.193 1.605.305.39.065.819.136 1.258.215.158.425.062 2.09-.21 2.61-.677-.005-1.512-.044-2.47-.086-1.463-.064-3.282-.146-5.355-.146-2.44 0-4.14.082-5.504.146-.915.043-1.708.082-2.5.086m77.449-28.836c-1.42 0-2.747.372-3.735 1.047-2.71 1.647-4.09 4.935-4.09 9.765 0 9.046 4.535 15.362 11.026 15.362 1.915 0 3.476-.55 4.774-1.681 1.995-1.626 3.052-4.946 3.052-9.595 0-8.911-4.431-14.898-11.027-14.898zm1.25 29.53c-11.729 0-15.908-8.594-15.908-16.635 0-5.618 2.3-10.01 6.838-13.054 3.225-1.98 7.075-3.12 10.554-3.12 8.95 0 15.204 6.43 15.204 15.635 0 6.258-2.5 11.198-7.225 14.285-2.267 1.389-6.199 2.889-9.463 2.889m120.211-29.53c-1.423 0-2.75.372-3.737 1.047-2.71 1.647-4.09 4.934-4.09 9.765 0 9.046 4.534 15.362 11.027 15.362 1.915 0 3.476-.55 4.774-1.682 1.994-1.625 3.052-4.944 3.052-9.593 0-8.911-4.432-14.899-11.026-14.899zm1.25 29.53c-11.731 0-15.91-8.594-15.91-16.635 0-5.618 2.302-10.011 6.84-13.055 3.223-1.98 7.074-3.118 10.552-3.118 8.952 0 15.204 6.43 15.204 15.633 0 6.26-2.499 11.2-7.224 14.285-2.267 1.39-6.198 2.89-9.463 2.89m-40.5-29.838c-3.615 0-5.951 2.852-5.951 7.266 0 4.455 2.009 9.656 7.67 9.656.972 0 2.735-.432 3.608-1.393 1.315-1.207 2.174-3.702 2.174-6.336 0-5.757-2.804-9.193-7.5-9.193zm-.466 30.453c-1.359 0-2.347.395-2.937.726-2.862 1.833-4.188 3.663-4.188 5.77 0 1.987.772 3.566 2.431 4.97 2.01 1.7 4.72 2.528 8.284 2.528 7.01 0 10.154-3.766 10.154-7.498 0-2.597-1.305-4.338-3.99-5.323-2.069-.755-5.524-1.173-9.754-1.173zm.466 17.889c-4.21 0-7.244-.888-9.836-2.88-2.521-1.943-3.65-4.826-3.65-6.818 0-.572.135-2.053 1.38-3.467.735-.833 2.434-2.392 6.36-5.089a.323.323 0 0 0 .204-.308.32.32 0 0 0-.246-.322c-3.236-1.237-4.211-3.267-4.506-4.37a2.372 2.372 0 0 0-.032-.17c-.093-.431-.18-.84.405-1.26.453-.322 1.181-.753 1.952-1.207 1.137-.671 2.426-1.432 3.14-2.043a.488.488 0 0 0 .131-.433.49.49 0 0 0-.262-.366c-4.788-1.607-7.199-5.16-7.199-10.57 0-3.493 1.613-6.65 4.423-8.663 1.926-1.52 6.76-3.348 9.891-3.348l.182.002c3.222.076 5.038.75 7.551 1.68 1.365.505 2.657.71 4.464.71 2.667 0 3.832-.845 4.831-1.814.057.12.194.5.254 1.378.064.895-.18 2.222-.866 3.168-.546.755-1.81 1.302-3.002 1.302-.12 0-.237-.006-.35-.018-1.229-.12-1.806-.299-1.811-.302l-.301.105c-.095.138-.033.293.044.487.02.047.038.091.045.12.157.625.435 2.447.435 2.957 0 5.674-2.241 8.149-4.663 9.978-2.311 1.743-5.013 2.79-8.057 3.111h-.003c-.062 0-.35.026-.932.077-.375.035-.842.077-.911.077l-.069.009c-.53.15-1.902.801-1.902 2.015 0 1.01.623 2.26 3.59 2.484.603.046 1.248.09 1.922.137 3.919.272 8.812.612 11.116 1.392 3.168 1.153 5.14 3.987 5.14 7.397 0 5.092-3.625 9.88-9.695 12.804-2.944 1.385-5.934 2.058-9.167 2.058m-19.257-21.914c-1.717-.231-2.967-.462-4.45-1.156-.234-.154-.547-.848-.547-1.08-.157-2.39-.157-9.329-.157-13.877 0-3.701-.623-6.94-2.185-9.253-1.873-2.621-4.527-4.163-7.963-4.163-3.043 0-7.104 2.082-10.46 4.935-.079.077-.594.565-.583-.194.012-.758.13-2.302.2-3.273.071-.972-.512-1.43-.512-1.43-2.186 1.08-8.342 2.541-10.615 2.776-1.662.32-2.08 1.916-.311 2.467 0 .002.017.005.027.008 1.851.557 3.098 1.152 4.03 1.765.703.54.624 1.311.624 1.928.078 5.165.078 13.107-.157 17.424-.077 1.697-.546 2.313-1.795 2.622l.114-.038c-.937.23-1.718.385-2.889.54-.39.384-.39 2.62 0 3.083.78 0 4.763-.232 8.041-.232 4.528 0 6.87.232 8.041.232.468-.54.625-2.622.312-3.084-1.327-.077-2.264-.231-3.2-.462-1.25-.309-1.562-.925-1.639-2.314-.157-3.623-.157-11.333-.157-16.576 0-1.465.39-2.159.86-2.544 1.56-1.389 4.136-2.312 6.401-2.312 2.185 0 3.668.693 4.762 1.618 1.483 1.233 2.029 3.007 2.186 4.318.312 2.93.233 8.789.233 13.877 0 2.776-.233 3.47-1.248 3.778-.469.232-1.718.463-3.201.617-.468.462-.313 2.621 0 3.084 2.03 0 4.372-.232 7.806-.232 4.295 0 7.026.232 8.12.232.468-.54.623-2.545.312-3.084" fill="#414044"/><path d="M442.65 278.651h1.32c1.068 0 1.474-.373 1.474-1.338 0-.982-.39-1.305-1.592-1.305h-1.203v2.643zm2.811 4.15l-1.558-3.354h-1.254v3.354h-.915v-7.623h2.254c1.676 0 2.371.746 2.371 2.135 0 1.117-.526 1.829-1.507 2.033l1.609 3.455h-1zm-1.473-9.299a5.461 5.461 0 0 0-5.505 5.505 5.462 5.462 0 0 0 5.487 5.471 5.459 5.459 0 0 0 5.472-5.471c0-3.1-2.371-5.505-5.454-5.505zm-.018 11.518c-3.387 0-6.03-2.643-6.03-6.03 0-3.405 2.643-6.03 6.048-6.03 3.32 0 6.012 2.66 6.012 5.945 0 3.438-2.641 6.115-6.03 6.115" fill="#c0bdba"/></svg>