<svg xmlns="http://www.w3.org/2000/svg" width="500" height="500"><path d="M50 250v200h400V50H50v200zm322.35-15.937c10.158 2.54 17.904 7.048 25.015 14.413 3.683 3.937 9.143 11.111 9.587 12.826.127.508-17.27 12.19-27.81 18.73-.38.254-1.904-1.397-3.618-3.937-5.143-7.492-10.54-10.73-18.794-11.301-12.127-.826-19.936 5.523-19.873 16.127 0 3.11.445 4.952 1.714 7.492 2.667 5.524 7.62 8.825 23.175 15.555 28.635 12.318 40.889 20.445 48.508 32 8.508 12.89 10.413 33.46 4.635 48.762-6.35 16.635-22.095 27.937-44.254 31.683-6.857 1.206-23.111 1.016-30.476-.318-16.064-2.857-31.302-10.793-40.699-21.206-3.682-4.064-10.857-14.667-10.412-15.429.19-.254 1.84-1.27 3.682-2.349 1.778-1.016 8.508-4.889 14.857-8.571l11.492-6.667 2.413 3.556c3.365 5.142 10.73 12.19 15.175 14.54 12.762 6.73 30.285 5.777 38.92-1.969 3.683-3.365 5.207-6.857 5.207-12 0-4.635-.572-6.667-2.984-10.159-3.112-4.444-9.46-8.19-27.493-16-20.634-8.889-29.523-14.412-37.65-23.174-4.699-5.08-9.143-13.207-10.984-20-1.524-5.651-1.905-19.81-.699-25.524 4.254-19.937 19.302-33.841 41.016-37.968 7.048-1.334 23.429-.826 30.35.888zm-93.906 16.699l.127 16.38h-52.063V415.08h-36.825V267.143h-52.064v-16.064c0-8.889.19-16.317.444-16.508.191-.254 31.874-.38 70.286-.317l69.905.19.19 16.318z" fill="#007acc"/></svg>